<svg xmlns="http://www.w3.org/2000/svg" width="80" height="48" viewBox="0 0 80 48"><defs><linearGradient id="g" x1="0" y1="1" x2="1" y2="0"><stop stop-color="#ea7438" stop-opacity="0.35"/><stop offset="0.6" stop-color="#ea7438"/><stop offset="1" stop-color="#fff0c9"/></linearGradient></defs><path d="M5 11Q30 12 35 4Q32 16 44 12Q50 4 61 17Q75 20 72 31Q63 47 41 39Q18 38 5 30Q26 32 25 25Q17 23 5 11Z" fill="url(#g)"/><path d="M35 20Q55 16 61 22Q67 29 55 33Q45 35 32 29L44 26Z" fill="#ffdf87"/><circle cx="13" cy="6" r="2" fill="#ffbb64"/><circle cx="12" cy="41" r="2" fill="#ec7132"/></svg>
